<svg width="64" height="65" viewBox="0 0 64 65" fill="none" xmlns="http://www.w3.org/2000/svg">
<g id="Icon" clip-path="url(#clip0_2_223)">
<path id="Vector" d="M24 0.0400391C20.6667 0.0400391 17.5417 0.665039 14.625 1.91504C11.7083 3.16504 9.16668 4.87337 7.00002 7.04004C4.83335 9.20671 3.12502 11.7484 1.87502 14.665C0.625015 17.5817 1.52588e-05 20.7067 1.52588e-05 24.04C1.52588e-05 28.9567 1.12502 33.7275 3.37502 38.3525C5.62502 42.9359 8.12502 47.0088 10.875 50.5713C13.625 54.1338 16.1875 57.0192 18.5625 59.2275C20.9375 61.3942 22.2083 62.5609 22.375 62.7275L24 64.04L25.625 62.7275C25.7917 62.5609 27.0625 61.3942 29.4375 59.2275C31.8125 57.0192 34.375 54.1338 37.125 50.5713C39.875 47.0088 42.375 42.9359 44.625 38.3525C46.875 33.7275 48 28.9567 48 24.04C48 20.7067 47.375 17.5817 46.125 14.665C44.875 11.7484 43.1667 9.20671 41 7.04004C38.8333 4.87337 36.2917 3.16504 33.375 1.91504C30.4583 0.665039 27.3333 0.0400391 24 0.0400391ZM24 57.3525C22.7917 56.3109 21.1458 54.6442 19.0625 52.3525C16.9792 50.0609 14.9167 47.4046 12.875 44.3838C10.8333 41.363 9.06252 38.1025 7.56252 34.6025C6.06252 31.1025 5.31252 27.5817 5.31252 24.04C5.31252 21.4567 5.81252 19.0192 6.81252 16.7275C7.77085 14.4775 9.09377 12.5088 10.7813 10.8213C12.4688 9.13379 14.4375 7.81087 16.6875 6.85254C18.9792 5.85254 21.4167 5.35254 24 5.35254C26.5833 5.35254 29.0208 5.85254 31.3125 6.85254C33.5625 7.81087 35.5313 9.13379 37.2188 10.8213C38.9063 12.5088 40.2292 14.4775 41.1875 16.7275C42.1875 19.0192 42.6875 21.4567 42.6875 24.04C42.6875 27.5817 41.9375 31.1025 40.4375 34.6025C38.9375 38.1025 37.1667 41.363 35.125 44.3838C33.0833 47.4046 31.0208 50.0609 28.9375 52.3525C26.8542 54.6442 25.2083 56.3109 24 57.3525ZM24 13.3525C21.0833 13.3525 18.5729 14.4046 16.4688 16.5088C14.3646 18.613 13.3125 21.1234 13.3125 24.04C13.3125 26.9567 14.3646 29.4671 16.4688 31.5713C18.5729 33.6755 21.0833 34.7275 24 34.7275C26.9167 34.7275 29.4271 33.6755 31.5313 31.5713C33.6354 29.4671 34.6875 26.9567 34.6875 24.04C34.6875 21.1234 33.6354 18.613 31.5313 16.5088C29.4271 14.4046 26.9167 13.3525 24 13.3525ZM24 29.3525C22.5417 29.3525 21.2917 28.8317 20.25 27.79C19.2083 26.7484 18.6875 25.4984 18.6875 24.04C18.6875 22.5817 19.2083 21.3317 20.25 20.29C21.2917 19.2484 22.5417 18.7275 24 18.7275C25.4583 18.7275 26.7083 19.2484 27.75 20.29C28.7917 21.3317 29.3125 22.5817 29.3125 24.04C29.3125 25.4984 28.7917 26.7484 27.75 27.79C26.7083 28.8317 25.4583 29.3525 24 29.3525Z" fill="#0196E3"/>
</g>
<defs>
<clipPath id="clip0_2_223">
<rect width="64" height="64" fill="white" transform="matrix(1 0 0 -1 1.52588e-05 64.04)"/>
</clipPath>
</defs>
</svg>
