<svg width="65" height="65" viewBox="0 0 65 65" fill="none" xmlns="http://www.w3.org/2000/svg">
<g id="Icon" clip-path="url(#clip0_2_228)">
<path id="Vector" d="M51.035 64.04L49.2225 62.9775C46.6809 61.5609 44.2017 60.1025 41.785 58.6025C39.3684 57.1025 37.0246 55.5192 34.7538 53.8525C32.483 52.1859 30.2642 50.4359 28.0975 48.6025C25.9309 46.7275 23.8059 44.7692 21.7225 42.7275C19.7225 40.7275 17.8059 38.6442 15.9725 36.4775C14.1392 34.3525 12.3892 32.1546 10.7225 29.8838C9.05587 27.613 7.47253 25.29 5.97253 22.915C4.47253 20.4984 3.05587 18.0192 1.72253 15.4775L0.660034 13.665L14.285 0.0400391L30.785 16.6025L25.4725 24.29L40.0975 38.9775L47.8475 33.665L64.41 50.165L51.035 64.04ZM25.4725 39.2275C27.3475 41.0192 29.2434 42.7484 31.16 44.415C33.1184 46.0817 35.108 47.6859 37.1288 49.2275C39.1496 50.7692 41.2434 52.2484 43.41 53.665C45.535 55.04 47.7225 56.3734 49.9725 57.665L57.2225 50.415L47.5975 40.8525L39.8475 46.165L18.785 25.1025L24.0975 17.3525L14.285 7.47754L7.34753 14.7275C8.59753 16.9775 9.91003 19.165 11.285 21.29C12.66 23.4567 14.0975 25.5505 15.5975 27.5713C17.0975 29.5921 18.66 31.5817 20.285 33.54C21.9517 35.4567 23.6809 37.3525 25.4725 39.2275Z" fill="#0196E3"/>
</g>
<defs>
<clipPath id="clip0_2_228">
<rect width="64" height="64" fill="white" transform="matrix(1 0 0 -1 0.660034 64.04)"/>
</clipPath>
</defs>
</svg>
